<?xml version="1.0" standalone="no"?>
<!DOCTYPE svg PUBLIC "-//W3C//DTD SVG 20010904//EN"
 "http://www.w3.org/TR/2001/REC-SVG-20010904/DTD/svg10.dtd">
<svg version="1.0" xmlns="http://www.w3.org/2000/svg"
 width="200.000000pt" height="71.000000pt" viewBox="0 0 200.000000 71.000000"
 preserveAspectRatio="xMidYMid meet">

<g transform="translate(0.000000,71.000000) scale(0.100000,-0.100000)"
fill="#000000" stroke="none">
<path d="M986 635 c-23 -35 -20 -45 5 -15 l20 25 -5 -50 c-4 -34 -3 -44 3 -30
12 26 14 95 2 95 -5 0 -16 -11 -25 -25z"/>
<path d="M1835 625 c-68 -10 -231 -57 -300 -85 -11 -5 -83 -34 -160 -66 -77
-31 -210 -85 -295 -120 -85 -35 -160 -64 -166 -64 -22 0 -24 31 -3 53 23 23
69 114 69 135 0 6 -5 12 -11 12 -6 0 -9 -6 -6 -14 6 -15 -35 -110 -52 -120
-20 -13 -4 97 23 158 16 35 20 54 12 46 -16 -13 -48 -103 -68 -190 l-13 -55
-6 50 -6 50 -2 -55 c-2 -81 -9 -97 -42 -104 -16 -3 -32 -5 -35 -5 -4 0 -10 -4
-13 -9 -7 -11 -255 -92 -411 -134 -63 -17 -135 -36 -160 -43 -28 -8 -46 -19
-48 -30 -3 -12 1 -16 15 -11 10 3 61 17 113 31 108 30 152 45 335 110 72 25
149 50 173 54 51 10 51 12 -10 -117 -22 -46 -38 -86 -35 -88 5 -5 97 189 97
207 0 7 3 10 6 6 3 -3 1 -29 -4 -59 -18 -91 -21 -128 -12 -128 5 0 11 8 13 17
3 10 5 1 6 -19 0 -21 6 -38 11 -38 9 0 17 136 12 210 -1 19 1 22 8 10 8 -13
10 -12 10 3 0 35 27 15 41 -30 16 -55 33 -62 37 -16 2 22 -3 38 -18 53 -28 28
-21 42 26 59 44 15 155 61 229 95 268 123 598 234 705 237 25 1 59 5 75 9 52
13 -48 10 -140 -5z m-945 -339 c0 -3 -4 -8 -10 -11 -5 -3 -10 -1 -10 4 0 6 5
11 10 11 6 0 10 -2 10 -4z m60 -97 c0 -11 -4 -17 -10 -14 -5 3 -10 15 -10 26
0 11 5 17 10 14 6 -3 10 -15 10 -26z"/>
<path d="M867 521 c-4 -18 -6 -50 -6 -70 1 -27 4 -21 10 24 10 66 6 100 -4 46z"/>
<path d="M680 343 c10 -41 39 -85 61 -91 8 -2 2 8 -13 22 -15 14 -30 42 -34
61 -3 19 -10 37 -14 40 -4 3 -4 -12 0 -32z"/>
<path d="M78 31 c-55 -19 -70 -31 -39 -31 19 0 48 12 90 38 2 1 2 4 0 6 -2 2
-25 -4 -51 -13z"/>
</g>
</svg>
