<?xml version="1.0" encoding="UTF-8"?>
<svg version="1.1" xmlns="http://www.w3.org/2000/svg" width="200" height="71">
<path d="M0 0 C66 0 132 0 200 0 C200 23.43 200 46.86 200 71 C134 71 68 71 0 71 C0 47.57 0 24.14 0 0 Z " fill="#FBFBFB" transform="translate(0,0)"/>
<path d="M0 0 C0 20.79 0 41.58 0 63 C-37.62 63 -75.24 63 -114 63 C-114 57.06 -114 51.12 -114 45 C-113.34 45 -112.68 45 -112 45 C-112 43.35 -112 41.7 -112 40 C-111.01 40 -110.02 40 -109 40 C-108.731875 40.928125 -108.46375 41.85625 -108.1875 42.8125 C-107.05519579 45.85184289 -106.30099489 46.90073617 -104 49 C-104.28109113 47.35232753 -104.57518526 45.70686855 -104.875 44.0625 C-105.03742188 43.14597656 -105.19984375 42.22945312 -105.3671875 41.28515625 C-105.57601562 40.53105469 -105.78484375 39.77695312 -106 39 C-106.66 38.67 -107.32 38.34 -108 38 C-108 37.01 -108 36.02 -108 35 C-107.20078125 34.78085937 -106.4015625 34.56171875 -105.578125 34.3359375 C-98.46330956 32.2816598 -92.13474096 29.76708152 -85.65625 26.171875 C-82.8543175 24.93572831 -81.02420451 24.75894022 -78 25 C-78 24.34 -78 23.68 -78 23 C-77.21238281 22.70867188 -76.42476562 22.41734375 -75.61328125 22.1171875 C-69.89769339 19.96623254 -64.31202709 17.72107241 -58.8125 15.0625 C-50.77802889 11.29634167 -42.46459845 8.61207405 -34 6 C-33.22897949 5.75830078 -32.45795898 5.51660156 -31.66357422 5.26757812 C-21.02648245 1.96849272 -11.20862747 0 0 0 Z " fill="#FAFAFA" transform="translate(200,8)"/>
<path d="M0 0 C0.66 0 1.32 0 2 0 C3.0813602 10.59732992 -1.83875225 21.92332292 -7 31 C-7.66 31.66 -8.32 32.32 -9 33 C-9.6425235 35.06874034 -9.6425235 35.06874034 -10 37 C-7.56052116 36.10929944 -5.12353556 35.21253482 -2.6875 34.3125 C-2.01654297 34.06822266 -1.34558594 33.82394531 -0.65429688 33.57226562 C3.31778721 32.09905134 7.18190466 30.48573632 11.02734375 28.70703125 C18.33104244 25.34219221 25.79193536 22.37666613 33.25 19.375 C35.38690115 18.51287759 37.52352063 17.65006517 39.65985107 16.78652954 C40.97624119 16.25463747 42.29298685 15.72362406 43.61016846 15.19369507 C46.68071324 13.95505414 49.73733125 12.69055999 52.77734375 11.37915039 C67.13215076 5.23594548 84.35381181 0.875723 100 2 C97.3096275 4.6903725 95.95314384 4.19639653 92.1875 4.25 C72.78745315 5.39933883 51.81815383 13.57444436 34.41015625 21.93359375 C30.40294122 23.70664027 26.2272191 24.87213026 22 26 C22 26.66 22 27.32 22 28 C21.443125 28.17015625 20.88625 28.3403125 20.3125 28.515625 C16.38111423 29.76410562 12.65801131 31.08249407 9 33 C3.52975193 35.844529 -1.79459337 38 -8 38 C-8 38.99 -8 39.98 -8 41 C-6.515 41.495 -6.515 41.495 -5 42 C-3.8422494 45.47325181 -3.93133348 48.36067448 -4 52 C-7 51 -7 51 -9 48 C-9.125 45.3125 -9.125 45.3125 -9 43 C-9.99 43 -10.98 43 -12 43 C-12 44.65 -12 46.3 -12 48 C-12.66 48 -13.32 48 -14 48 C-14 53.94 -14 59.88 -14 66 C-41.72 66 -69.44 66 -98 66 C-98 65.34 -98 64.68 -98 64 C-85.57632692 59.85013781 -73.14801988 56.10559434 -60.38671875 53.13037109 C-54.58785366 51.75354001 -49.06693196 50.03387625 -43.48852539 47.93432617 C-40.37765194 46.76633709 -37.23471763 45.73813207 -34.0625 44.75 C-33.00160156 44.41484375 -31.94070312 44.0796875 -30.84765625 43.734375 C-28 43 -28 43 -24 43 C-24 42.34 -24 41.68 -24 41 C-22.865625 40.525625 -21.73125 40.05125 -20.5625 39.5625 C-17.24259834 38.36377917 -17.24259834 38.36377917 -16 37 C-15.78452913 35.46308665 -15.62898916 33.91766807 -15.5 32.37109375 C-15.4175 31.41783203 -15.335 30.46457031 -15.25 29.48242188 C-15.1675 28.47759766 -15.085 27.47277344 -15 26.4375 C-14.67821851 22.62388652 -14.34705429 18.81139979 -14 15 C-13.92910156 14.1867627 -13.85820313 13.37352539 -13.78515625 12.53564453 C-13.59647671 10.68153705 -13.30882174 8.83791829 -13 7 C-12.34 6.67 -11.68 6.34 -11 6 C-11.06058594 6.63164062 -11.12117188 7.26328125 -11.18359375 7.9140625 C-11.90364286 15.60197142 -12.47145554 23.29674563 -13 31 C-12.62875 29.1128125 -12.62875 29.1128125 -12.25 27.1875 C-11.01629272 21.64462942 -9.36399737 16.17124425 -7 11 C-6.34 10.67 -5.68 10.34 -5 10 C-5.2165625 10.68707031 -5.433125 11.37414063 -5.65625 12.08203125 C-5.9346875 12.98308594 -6.213125 13.88414063 -6.5 14.8125 C-6.7784375 15.70582031 -7.056875 16.59914063 -7.34375 17.51953125 C-8.12788351 20.05573395 -8.12788351 20.05573395 -8 23 C-6.68 20.69 -5.36 18.38 -4 16 C-3.34 16 -2.68 16 -2 16 C-1.86722656 15.39671875 -1.73445313 14.7934375 -1.59765625 14.171875 C-1.42105469 13.37265625 -1.24445313 12.5734375 -1.0625 11.75 C-0.88847656 10.96109375 -0.71445313 10.1721875 -0.53515625 9.359375 C-0.052444 7.23121297 0.46163178 5.11467158 1 3 C0.34 3 -0.32 3 -1 3 C-1.33 3.99 -1.66 4.98 -2 6 C-2.495 5.01 -2.495 5.01 -3 4 C-1.625 2 -1.625 2 0 0 Z " fill="#5F5E62" transform="translate(100,5)"/>
<path d="M0 0 C-2.16675912 6.95643717 -4.90883522 13.39994546 -8 20 C-5.36 14.72 -2.72 9.44 0 4 C0.91933305 7.67733219 0.99485581 9.59899538 0.5625 13.25 C0.46066406 14.14203125 0.35882813 15.0340625 0.25390625 15.953125 C0.12822266 16.96632813 0.12822266 16.96632813 0 18 C0.66 18 1.32 18 2 18 C2 19.65 2 21.3 2 23 C-23.08 23 -48.16 23 -74 23 C-73.67 22.34 -73.34 21.68 -73 21 C-71.1015625 20.47265625 -71.1015625 20.47265625 -68.625 20.0625 C-62.97183232 19.02383946 -57.52745898 17.56674007 -52 16 C-50.35170269 15.54896654 -48.70325128 15.09849603 -47.0546875 14.6484375 C-38.48138497 12.28314872 -30.19139227 9.86641133 -22.0546875 6.234375 C-18.06525691 4.62227773 -14.00234272 3.39467469 -9.875 2.1875 C-9.12702148 1.96827881 -8.37904297 1.74905762 -7.60839844 1.52319336 C-2.28244441 0 -2.28244441 0 0 0 Z " fill="#F8F8F8" transform="translate(82,48)"/>
<path d="M0 0 C-1.8253125 0.5878125 -1.8253125 0.5878125 -3.6875 1.1875 C-7.62756714 2.49879393 -11.50257096 3.93849521 -15.375 5.4375 C-16.49261719 5.86933594 -17.61023437 6.30117188 -18.76171875 6.74609375 C-20.72391132 7.50588122 -22.68513565 8.26818456 -24.64453125 9.03515625 C-31.06938967 11.47285215 -37.59641543 13.34148547 -44.22290039 15.13574219 C-48.89533371 16.40214391 -53.51426035 17.77027425 -58.125 19.25 C-62.79258867 20.72117668 -67.13929648 21.53262466 -72 22 C-72.33 22.33 -72.66 22.66 -73 23 C-74.99958364 23.04080783 -77.00045254 23.04254356 -79 23 C-79 22.34 -79 21.68 -79 21 C-66.57632692 16.85013781 -54.14801988 13.10559434 -41.38671875 10.13037109 C-35.58450464 8.75274484 -30.06127464 7.03090644 -24.47973633 4.92993164 C-21.41406998 3.78026903 -18.31606708 2.7766496 -15.1875 1.8125 C-14.14980469 1.48894531 -13.11210938 1.16539063 -12.04296875 0.83203125 C-4.05571227 -1.35190409 -4.05571227 -1.35190409 0 0 Z " fill="#464346" transform="translate(81,48)"/>
<path d="M0 0 C-2.6903725 2.6903725 -4.04685616 2.19639653 -7.8125 2.25 C-27.21254685 3.39933883 -48.18184617 11.57444436 -65.58984375 19.93359375 C-69.59705878 21.70664027 -73.7727809 22.87213026 -78 24 C-78 24.66 -78 25.32 -78 26 C-78.556875 26.17015625 -79.11375 26.3403125 -79.6875 26.515625 C-83.61888577 27.76410562 -87.34198869 29.08249407 -91 31 C-101.5436694 36.46162075 -101.5436694 36.46162075 -106.265625 35.57421875 C-107.12414062 35.28998047 -107.12414062 35.28998047 -108 35 C-103.41878949 32.57465326 -98.85328949 30.51277201 -94 28.6875 C-89.07087385 26.83129635 -84.24643372 24.82887049 -79.4375 22.6875 C-72.33247144 19.52922335 -65.14462775 16.61017383 -57.91381836 13.75268555 C-54.34450196 12.34161075 -50.78715285 10.92273725 -47.26953125 9.38671875 C-32.86143881 3.27575959 -15.69055008 -1.12746468 0 0 Z " fill="#4D4C4D" transform="translate(200,7)"/>
<path d="M0 0 C0.66 0 1.32 0 2 0 C3.0813602 10.59732992 -1.83875225 21.92332292 -7 31 C-7.66 31.66 -8.32 32.32 -9 33 C-9.6425235 35.06874034 -9.6425235 35.06874034 -10 37 C-9.34 37.33 -8.68 37.66 -8 38 C-10.475 38.495 -10.475 38.495 -13 39 C-13 38.01 -13 37.02 -13 36 C-12.34 36 -11.68 36 -11 36 C-10.67 33.36 -10.34 30.72 -10 28 C-10.66 28 -11.32 28 -12 28 C-11.36061303 22.08567056 -9.44128714 16.40768132 -7 11 C-6.34 10.67 -5.68 10.34 -5 10 C-5.32484375 11.03060547 -5.32484375 11.03060547 -5.65625 12.08203125 C-5.9346875 12.98308594 -6.213125 13.88414063 -6.5 14.8125 C-6.7784375 15.70582031 -7.056875 16.59914063 -7.34375 17.51953125 C-8.12788351 20.05573395 -8.12788351 20.05573395 -8 23 C-6.68 20.69 -5.36 18.38 -4 16 C-3.34 16 -2.68 16 -2 16 C-1.86722656 15.39671875 -1.73445313 14.7934375 -1.59765625 14.171875 C-1.42105469 13.37265625 -1.24445313 12.5734375 -1.0625 11.75 C-0.88847656 10.96109375 -0.71445313 10.1721875 -0.53515625 9.359375 C-0.052444 7.23121297 0.46163178 5.11467158 1 3 C0.34 3 -0.32 3 -1 3 C-1.33 3.99 -1.66 4.98 -2 6 C-2.33 5.34 -2.66 4.68 -3 4 C-1.625 2 -1.625 2 0 0 Z " fill="#807D82" transform="translate(100,5)"/>
<path d="M0 0 C-0.99 0.495 -0.99 0.495 -2 1 C-2.66 2.98 -3.32 4.96 -4 7 C-12.25 7 -20.5 7 -29 7 C-28.67 6.34 -28.34 5.68 -28 5 C-26.1015625 4.47265625 -26.1015625 4.47265625 -23.625 4.0625 C-0.44868932 -0.13924841 -0.44868932 -0.13924841 0 0 Z " fill="#E8E8E9" transform="translate(37,64)"/>
<path d="M0 0 C1.03115279 3.26913624 0.9638984 5.86041348 0.5625 9.25 C0.46066406 10.14203125 0.35882813 11.0340625 0.25390625 11.953125 C0.17011719 12.62859375 0.08632812 13.3040625 0 14 C0.66 14 1.32 14 2 14 C2 15.65 2 17.3 2 19 C-1.96 19 -5.92 19 -10 19 C-9 16 -9 16 -7.63671875 14.73046875 C-5.28223033 12.24111703 -4.2017083 9.43050086 -2.8125 6.3125 C-2.28269531 5.13300781 -1.75289062 3.95351563 -1.20703125 2.73828125 C-0.80871094 1.83464844 -0.41039063 0.93101563 0 0 Z " fill="#E9E8E9" transform="translate(82,52)"/>
<path d="M0 0 C0.66 0 1.32 0 2 0 C1.45323217 4.55639859 0.72706364 8.7331369 -1 13 C-1.99 13.495 -1.99 13.495 -3 14 C-3.93393441 15.655611 -4.80102783 17.34950522 -5.625 19.0625 C-6.07101563 19.98160156 -6.51703125 20.90070312 -6.9765625 21.84765625 C-7.31429687 22.55792969 -7.65203125 23.26820312 -8 24 C-9.38173352 20.28331175 -8.57549763 18.16873721 -7.125 14.5625 C-6.01437459 11.77040325 -5.0437312 9.23446649 -4.4921875 6.27734375 C-3.8369594 3.24561372 -2.16144259 2.16144259 0 0 Z " fill="#E6E3E7" transform="translate(99,8)"/>
<path d="M0 0 C0.33 0 0.66 0 1 0 C0.93941406 0.63164062 0.87882812 1.26328125 0.81640625 1.9140625 C0.09635714 9.60197142 -0.47145554 17.29674563 -1 25 C-0.67 24.01 -0.34 23.02 0 22 C0.66 22 1.32 22 2 22 C1.4140625 28.15234375 1.4140625 28.15234375 1 30 C0.34 30.33 -0.32 30.66 -1 31 C-1.69227032 33.80980673 -1.69227032 33.80980673 -2.125 37.0625 C-2.29257813 38.16722656 -2.46015625 39.27195313 -2.6328125 40.41015625 C-2.75398438 41.26480469 -2.87515625 42.11945312 -3 43 C-3.33 43 -3.66 43 -4 43 C-5.12547326 35.4968449 -5.12547326 35.4968449 -4.53881836 33.17382812 C-3.94893049 30.79396332 -3.70749611 28.52083595 -3.5 26.078125 C-3.4175 25.13453125 -3.335 24.1909375 -3.25 23.21875 C-3.1675 22.2390625 -3.085 21.259375 -3 20.25 C-1.38596491 1.38596491 -1.38596491 1.38596491 0 0 Z " fill="#535155" transform="translate(88,11)"/>
<path d="M0 0 C-2.6903725 2.6903725 -4.04685616 2.19639653 -7.8125 2.25 C-17.21564098 2.75775008 -25.89223317 5.5642962 -34.84033203 8.3515625 C-35.55302246 8.56554688 -36.26571289 8.77953125 -37 9 C-37.69077637 9.23460937 -38.38155273 9.46921875 -39.09326172 9.7109375 C-41 10 -41 10 -44 8 C-29.89686167 3.23987432 -15.0056785 -1.07825235 0 0 Z " fill="#686868" transform="translate(200,7)"/>
<path d="M0 0 C0.66 0.33 1.32 0.66 2 1 C1.34 1.66 0.68 2.32 0 3 C-0.46162427 5.43252661 -0.46162427 5.43252661 -0.625 8.125 C-0.69976562 9.03507812 -0.77453125 9.94515625 -0.8515625 10.8828125 C-0.90054688 11.58148438 -0.94953125 12.28015625 -1 13 C-2.32 13.33 -3.64 13.66 -5 14 C-5.226875 13.05125 -5.45375 12.1025 -5.6875 11.125 C-6.69083714 7.80676612 -6.69083714 7.80676612 -9.625 6.625 C-10.40875 6.41875 -11.1925 6.2125 -12 6 C-11.42507812 5.71511719 -10.85015625 5.43023437 -10.2578125 5.13671875 C-8.80655238 4.40606703 -7.362969 3.65984949 -5.9296875 2.89453125 C-5.25164062 2.53746094 -4.57359375 2.18039063 -3.875 1.8125 C-2.85019531 1.26529297 -2.85019531 1.26529297 -1.8046875 0.70703125 C-1.20914063 0.47371094 -0.61359375 0.24039063 0 0 Z " fill="#ECECEC" transform="translate(113,35)"/>
<path d="M0 0 C-0.99 0 -1.98 0 -3 0 C-3 0.66 -3 1.32 -3 2 C-5.64 2.66 -8.28 3.32 -11 4 C-11 4.66 -11 5.32 -11 6 C-13.05078125 6.22786458 -15.1015625 6.45572917 -17.15234375 6.68359375 C-19.01140229 6.81886614 -19.01140229 6.81886614 -20 8 C-21.99958364 8.04080783 -24.00045254 8.04254356 -26 8 C-26 7.34 -26 6.68 -26 6 C-22.42211911 4.79561349 -18.83698135 3.61447826 -15.25 2.4375 C-14.23421875 2.09525391 -13.2184375 1.75300781 -12.171875 1.40039062 C-11.1921875 1.08134766 -10.2125 0.76230469 -9.203125 0.43359375 C-8.30239258 0.13509521 -7.40166016 -0.16340332 -6.47363281 -0.47094727 C-3.88194396 -1.02524945 -2.47168427 -0.87013375 0 0 Z " fill="#727075" transform="translate(28,63)"/>
<path d="M0 0 C0.99 0 1.98 0 3 0 C3 0.66 3 1.32 3 2 C3.99 2.33 4.98 2.66 6 3 C7.1577506 6.47325181 7.06866652 9.36067448 7 13 C4 12 4 12 2 9 C1.875 6.3125 1.875 6.3125 2 4 C1.01 4 0.02 4 -1 4 C-0.67 2.68 -0.34 1.36 0 0 Z " fill="#87858B" transform="translate(89,44)"/>
<path d="M0 0 C0.89203125 0.01804688 1.7840625 0.03609375 2.703125 0.0546875 C3.71632813 0.08949219 3.71632813 0.08949219 4.75 0.125 C-0.66112559 5.53612559 -11.78409846 6.52772788 -19.25 7.125 C-16.24382731 4.11882731 -13.42618402 4.52914684 -9.25 4.125 C-9.25 3.465 -9.25 2.805 -9.25 2.125 C-6.03817851 0.21891902 -3.71117397 -0.09766247 0 0 Z " fill="#3A383E" transform="translate(34.25,60.875)"/>
<path d="M0 0 C0.66 0 1.32 0 2 0 C2.84381994 8.26943544 -0.21127025 15.3509127 -3 23 C-3.68707555 20.50935112 -4 18.62113708 -4 16 C-3.34 16 -2.68 16 -2 16 C-1.86722656 15.39671875 -1.73445313 14.7934375 -1.59765625 14.171875 C-1.42105469 13.37265625 -1.24445313 12.5734375 -1.0625 11.75 C-0.88847656 10.96109375 -0.71445313 10.1721875 -0.53515625 9.359375 C-0.052444 7.23121297 0.46163178 5.11467158 1 3 C0.34 3 -0.32 3 -1 3 C-1.33 3.99 -1.66 4.98 -2 6 C-2.33 5.34 -2.66 4.68 -3 4 C-1.625 2 -1.625 2 0 0 Z " fill="#817D80" transform="translate(100,5)"/>
<path d="M0 0 C0 0.66 0 1.32 0 2 C-1.65 2 -3.3 2 -5 2 C-5 2.99 -5 3.98 -5 5 C-9.29 5 -13.58 5 -18 5 C-17.67 4.34 -17.34 3.68 -17 3 C-14.85546875 2.40234375 -14.85546875 2.40234375 -12.1875 1.9375 C-8.50438014 1.28594956 -8.50438014 1.28594956 -4.86328125 0.44140625 C-3 0 -3 0 0 0 Z " fill="#E3E2E4" transform="translate(26,66)"/>
<path d="M0 0 C1.67542976 0.28604898 3.34385343 0.61781233 5 1 C4.38461538 6.53846154 4.38461538 6.53846154 2.4375 8.875 C1.7259375 9.431875 1.7259375 9.431875 1 10 C0.9071875 8.824375 0.9071875 8.824375 0.8125 7.625 C0.544375 6.75875 0.27625 5.8925 0 5 C-2.47636012 3.62533375 -2.47636012 3.62533375 -5 3 C-4.360625 2.690625 -3.72125 2.38125 -3.0625 2.0625 C-1.06389179 1.1654837 -1.06389179 1.1654837 0 0 Z " fill="#F2F2F2" transform="translate(106,38)"/>
<path d="M0 0 C-3.64578405 3.32875935 -8.21084385 5.0219329 -13 6 C-15.28125 5.578125 -15.28125 5.578125 -17 5 C-4.54150198 -1.51383399 -4.54150198 -1.51383399 0 0 Z " fill="#444444" transform="translate(109,37)"/>
<path d="M0 0 C0.99 0.33 1.98 0.66 3 1 C2.152874 6.36513131 1.08318169 11.6787385 0 17 C-0.33 17 -0.66 17 -1 17 C-1.12036664 11.22240116 -0.8320582 5.72040011 0 0 Z " fill="#D5D3D6" transform="translate(87,22)"/>
<path d="M0 0 C0 0.33 0 0.66 0 1 C-1.41601714 1.48108275 -2.83284437 1.95978141 -4.25 2.4375 C-5.03890625 2.70433594 -5.8278125 2.97117188 -6.640625 3.24609375 C-7.41921875 3.49488281 -8.1978125 3.74367188 -9 4 C-10.07507813 4.35771484 -10.07507813 4.35771484 -11.171875 4.72265625 C-11.77515625 4.81417969 -12.3784375 4.90570313 -13 5 C-13.66 4.34 -14.32 3.68 -15 3 C-13.4447088 2.29634398 -11.88035173 1.61270622 -10.3125 0.9375 C-9.44238281 0.55464844 -8.57226562 0.17179687 -7.67578125 -0.22265625 C-4.67786136 -1.0935848 -2.96719847 -0.85006226 0 0 Z " fill="#646464" transform="translate(122,32)"/>
<path d="M0 0 C0.66 0 1.32 0 2 0 C1.67 2.31 1.34 4.62 1 7 C-0.32 6.67 -1.64 6.34 -3 6 C-3.33 6.66 -3.66 7.32 -4 8 C-4.33 7.34 -4.66 6.68 -5 6 C-3.4198632 3.84526801 -1.89353366 1.89353366 0 0 Z " fill="#CAC8CA" transform="translate(99,8)"/>
<path d="M0 0 C0.99 0.33 1.98 0.66 3 1 C2.34 2.32 1.68 3.64 1 5 C-0.98 5 -2.96 5 -5 5 C-5 4.01 -5 3.02 -5 2 C-3.35 2 -1.7 2 0 2 C0 1.34 0 0.68 0 0 Z " fill="#F9F9F9" transform="translate(26,66)"/>
<path d="M0 0 C-0.33 2.31 -0.66 4.62 -1 7 C-2.32 7 -3.64 7 -5 7 C-4.53479806 4.30182875 -3.4249099 0 0 0 Z " fill="#F5F3F4" transform="translate(99,13)"/>
<path d="M0 0 C0.33 0 0.66 0 1 0 C1 3.96 1 7.92 1 12 C0.34 12 -0.32 12 -1 12 C-1.33 9.36 -1.66 6.72 -2 4 C-1.34 4 -0.68 4 0 4 C0 2.68 0 1.36 0 0 Z " fill="#6C6A6D" transform="translate(85,59)"/>
<path d="M0 0 C-5.445 1.485 -5.445 1.485 -11 3 C-11.33 2.01 -11.66 1.02 -12 0 C-4.5 -2.25 -4.5 -2.25 0 0 Z " fill="#505050" transform="translate(68,53)"/>
<path d="M0 0 C0.33 0 0.66 0 1 0 C1 1.65 1 3.3 1 5 C1.66 5 2.32 5 3 5 C2.67 6.32 2.34 7.64 2 9 C1.01 9 0.02 9 -1 9 C-1.33 7.35 -1.66 5.7 -2 4 C-1.34 4 -0.68 4 0 4 C-0.33 3.01 -0.66 2.02 -1 1 C-0.67 0.67 -0.34 0.34 0 0 Z " fill="#F2F2F2" transform="translate(41,40)"/>
<path d="M0 0 C2 2 2 2 2.125 5.625 C2.08375 6.73875 2.0425 7.8525 2 9 C1.01 8.67 0.02 8.34 -1 8 C-1.33 6.02 -1.66 4.04 -2 2 C-1.01 3.485 -1.01 3.485 0 5 C0 3.35 0 1.7 0 0 Z " fill="#514F52" transform="translate(94,48)"/>
<path d="M0 0 C0.33 1.32 0.66 2.64 1 4 C-1.92824652 4.97608217 -3.95613276 5.08226668 -7 5 C-7 4.34 -7 3.68 -7 3 C-4.69 2.01 -2.38 1.02 0 0 Z " fill="#646064" transform="translate(83,43)"/>
<path d="M0 0 C0.99 0 1.98 0 3 0 C3.625 2.875 3.625 2.875 4 6 C3.34 6.66 2.68 7.32 2 8 C0.23537317 4.91190305 0 3.76687864 0 0 Z " fill="#EEEEEE" transform="translate(33,27)"/>
<path d="M0 0 C0.66 0 1.32 0 2 0 C2 2.31 2 4.62 2 7 C1.67 5.68 1.34 4.36 1 3 C0.34 3 -0.32 3 -1 3 C-1.33 3.99 -1.66 4.98 -2 6 C-2.33 5.34 -2.66 4.68 -3 4 C-1.625 2 -1.625 2 0 0 Z " fill="#5D5B5E" transform="translate(100,5)"/>
</svg>
